<svg id="visual" viewBox="0 0 1366 768" width="1366" height="768" xmlns="http://www.w3.org/2000/svg" xmlns:xlink="http://www.w3.org/1999/xlink" version="1.1"><rect x="0" y="0" width="1366" height="768" fill="#001220"></rect><path d="M0 88L38 93.3C76 98.7 152 109.3 227.8 118.8C303.7 128.3 379.3 136.7 455.2 136.2C531 135.7 607 126.3 683 116.8C759 107.3 835 97.7 910.8 101.8C986.7 106 1062.3 124 1138.2 127.2C1214 130.3 1290 118.7 1328 112.8L1366 107L1366 0L1328 0C1290 0 1214 0 1138.2 0C1062.3 0 986.7 0 910.8 0C835 0 759 0 683 0C607 0 531 0 455.2 0C379.3 0 303.7 0 227.8 0C152 0 76 0 38 0L0 0Z" fill="#fa7268"></path><path d="M0 91L38 94.8C76 98.7 152 106.3 227.8 109.3C303.7 112.3 379.3 110.7 455.2 110.2C531 109.7 607 110.3 683 106.7C759 103 835 95 910.8 90.2C986.7 85.3 1062.3 83.7 1138.2 84.5C1214 85.3 1290 88.7 1328 90.3L1366 92L1366 0L1328 0C1290 0 1214 0 1138.2 0C1062.3 0 986.7 0 910.8 0C835 0 759 0 683 0C607 0 531 0 455.2 0C379.3 0 303.7 0 227.8 0C152 0 76 0 38 0L0 0Z" fill="#ef5f67"></path><path d="M0 69L38 72.2C76 75.3 152 81.7 227.8 84.3C303.7 87 379.3 86 455.2 80.8C531 75.7 607 66.3 683 60.5C759 54.7 835 52.3 910.8 51.8C986.7 51.3 1062.3 52.7 1138.2 55.3C1214 58 1290 62 1328 64L1366 66L1366 0L1328 0C1290 0 1214 0 1138.2 0C1062.3 0 986.7 0 910.8 0C835 0 759 0 683 0C607 0 531 0 455.2 0C379.3 0 303.7 0 227.8 0C152 0 76 0 38 0L0 0Z" fill="#e34c67"></path><path d="M0 29L38 32.2C76 35.3 152 41.7 227.8 44.8C303.7 48 379.3 48 455.2 44.7C531 41.3 607 34.7 683 38C759 41.3 835 54.7 910.8 58.5C986.7 62.3 1062.3 56.7 1138.2 49.5C1214 42.3 1290 33.7 1328 29.3L1366 25L1366 0L1328 0C1290 0 1214 0 1138.2 0C1062.3 0 986.7 0 910.8 0C835 0 759 0 683 0C607 0 531 0 455.2 0C379.3 0 303.7 0 227.8 0C152 0 76 0 38 0L0 0Z" fill="#d53867"></path><path d="M0 32L38 28.3C76 24.7 152 17.3 227.8 13.5C303.7 9.7 379.3 9.3 455.2 14.5C531 19.7 607 30.3 683 33.5C759 36.7 835 32.3 910.8 31.2C986.7 30 1062.3 32 1138.2 32.5C1214 33 1290 32 1328 31.5L1366 31L1366 0L1328 0C1290 0 1214 0 1138.2 0C1062.3 0 986.7 0 910.8 0C835 0 759 0 683 0C607 0 531 0 455.2 0C379.3 0 303.7 0 227.8 0C152 0 76 0 38 0L0 0Z" fill="#c62368"></path></svg>